<?xml version="1.0" encoding="iso-8859-1"?>
<!-- Generator: Adobe Illustrator 16.0.0, SVG Export Plug-In . SVG Version: 6.00 Build 0)  -->
<!DOCTYPE svg PUBLIC "-//W3C//DTD SVG 1.1//EN" "http://www.w3.org/Graphics/SVG/1.1/DTD/svg11.dtd">
<svg version="1.1" id="Capa_1" xmlns="http://www.w3.org/2000/svg" xmlns:xlink="http://www.w3.org/1999/xlink" x="0px" y="0px"
	 width="32.248px" height="32.248px" viewBox="0 0 32.248 32.248" style="enable-background:new 0 0 32.248 32.248;"
	 xml:space="preserve">
<g>
	<g>
		<path d="M7.906,11.951c0.547-0.389,1.042-0.761,1.458-1.074l0.315-0.238c1.406-1.055,2.871-1.59,4.356-1.59
			c2.255,0,3.716,1.215,4.24,1.741l0,0c0.417-0.417,1.585-1.388,3.382-1.388c1.176,0,2.333,0.421,3.438,1.251l0.237,0.18
			c0.488,0.368,1.13,0.846,1.838,1.315c0.296-0.292,0.424-0.605,0.424-0.875l1.032-6.146c0-0.755-0.915-2.168-3.985-1.847
			c-3.024,0.318-7.021,3.693-7.021,3.693s-4.018-3.245-7.021-3.693C7.457,2.811,6.613,4.371,6.613,5.126l1.033,6.146
			C7.647,11.482,7.732,11.719,7.906,11.951z M24.643,4.558c2.225-0.317,2.974,0.65,2.974,1.208c0,0.557-0.779,1.207-2.974,1.207
			h-4.991C21.172,5.798,23.254,4.754,24.643,4.558z M10.602,4.558c1.387,0.176,3.464,1.24,4.992,2.415h-4.992
			c-2.195,0-2.974-0.65-2.974-1.207C7.627,5.208,8.413,4.277,10.602,4.558z"/>
		<path d="M27.234,20.916c0.195-0.186,0.391-0.377,0.591-0.576c2.964-2.962,4.423-5.524,4.423-5.524
			c-2.769,0.563-6.197-2.158-7.772-3.338c-2.406-1.807-4.51-0.916-5.47,0.043c-0.021,0.021-0.042,0.045-0.062,0.068
			c1.084,1.56,1.497,3.753,0.508,6.051c1.305,1.745,3.347,4.688,2.861,7.111c0,0,1.07-0.61,2.626-1.841
			c0.068,0.122,0.147,0.238,0.252,0.342c0.608,0.609,1.595,0.609,2.205,0c0.609-0.609,0.609-1.597,0-2.206
			C27.345,20.996,27.289,20.958,27.234,20.916z M24.645,14.088c-1.559-1.559-3.73-1.914-3.233-2.41
			c0.494-0.496,2.331,0.195,3.89,1.753c1.56,1.558,3.273,1.939,4.404,1.992C28.581,15.814,26.203,15.646,24.645,14.088z"/>
		<path d="M10.299,11.466C8.212,13.032,3.669,16.636,0,15.89c0,0,1.934,3.395,5.859,7.321c0.264,0.264,0.524,0.517,0.782,0.763
			c-0.073,0.055-0.146,0.107-0.212,0.173c-0.807,0.806-0.807,2.114,0,2.923c0.809,0.807,2.116,0.807,2.922,0
			c0.138-0.137,0.243-0.292,0.333-0.453c2.061,1.63,3.48,2.438,3.48,2.438c-0.731-3.652,2.87-8.2,4.438-10.283
			c2.398-3.189,1.215-5.979-0.056-7.25C16.276,10.251,13.489,9.07,10.299,11.466z M10.074,14.925
			c-2.067,2.066-5.216,2.287-6.709,1.77c1.501-0.07,3.774-0.575,5.838-2.64c2.064-2.064,4.5-2.979,5.158-2.322
			C15.017,12.39,12.14,12.86,10.074,14.925z"/>
	</g>
</g>
<g>
</g>
<g>
</g>
<g>
</g>
<g>
</g>
<g>
</g>
<g>
</g>
<g>
</g>
<g>
</g>
<g>
</g>
<g>
</g>
<g>
</g>
<g>
</g>
<g>
</g>
<g>
</g>
<g>
</g>
</svg>
