<?xml version="1.0" encoding="iso-8859-1"?>
<!-- Generator: Adobe Illustrator 16.0.0, SVG Export Plug-In . SVG Version: 6.00 Build 0)  -->
<!DOCTYPE svg PUBLIC "-//W3C//DTD SVG 1.1//EN" "http://www.w3.org/Graphics/SVG/1.1/DTD/svg11.dtd">
<svg version="1.1" id="Capa_1" xmlns="http://www.w3.org/2000/svg" xmlns:xlink="http://www.w3.org/1999/xlink" x="0px" y="0px"
	 width="24.679px" height="24.679px" viewBox="0 0 24.679 24.679" style="enable-background:new 0 0 24.679 24.679;"
	 xml:space="preserve">
<g>
	<g>
		<path d="M13.721,11.342c-0.177-0.026-0.329-0.136-0.407-0.295L12.338,9.07l-0.974,1.977c-0.079,0.159-0.231,0.269-0.408,0.295
			l-2.18,0.317l1.577,1.537c0.127,0.125,0.186,0.303,0.156,0.479l-0.373,2.172l1.95-1.025c0.079-0.041,0.165-0.062,0.251-0.062
			c0.087,0,0.174,0.021,0.252,0.062l1.95,1.025l-0.372-2.172c-0.03-0.176,0.028-0.354,0.155-0.479l1.576-1.537L13.721,11.342z"/>
		<path d="M12.34,0C5.525,0,0,5.524,0,12.339c0,6.815,5.524,12.34,12.34,12.34c6.814,0,12.339-5.524,12.339-12.34
			C24.679,5.524,19.154,0,12.34,0z M21.916,14.279l-3.506,0.94l1.892,1.093c0.257,0.148,0.347,0.479,0.197,0.736
			c-0.101,0.174-0.281,0.27-0.468,0.27c-0.092,0-0.186-0.022-0.271-0.072l-1.893-1.092l0.939,3.506
			c0.077,0.289-0.094,0.584-0.383,0.662c-0.046,0.012-0.094,0.019-0.139,0.019c-0.239,0-0.457-0.159-0.522-0.399l-1.22-4.551
			l-1.098-0.633l0.342,1.984c0.035,0.203-0.049,0.408-0.215,0.527c-0.094,0.068-0.205,0.104-0.317,0.104
			c-0.086,0-0.172-0.021-0.251-0.062l-2.126-1.119v1.316l3.33,3.329c0.21,0.211,0.21,0.553,0,0.765
			c-0.106,0.105-0.244,0.157-0.384,0.157c-0.139,0-0.275-0.052-0.381-0.157l-2.565-2.566v2.185c0,0.3-0.242,0.54-0.541,0.54
			c-0.298,0-0.539-0.24-0.539-0.54v-2.187l-2.567,2.568c-0.211,0.209-0.552,0.209-0.764,0c-0.21-0.211-0.21-0.554,0-0.764
			l3.331-3.332v-1.314L9.67,17.314c-0.184,0.094-0.405,0.077-0.569-0.043c-0.167-0.121-0.249-0.324-0.215-0.526l0.34-1.984
			l-1.093,0.631l-1.221,4.55c-0.065,0.242-0.282,0.4-0.521,0.4c-0.046,0-0.093-0.006-0.14-0.02c-0.288-0.076-0.46-0.373-0.382-0.661
			l0.939-3.507l-1.894,1.095c-0.085,0.049-0.177,0.071-0.271,0.071c-0.185,0-0.367-0.096-0.467-0.27
			c-0.15-0.258-0.062-0.588,0.198-0.736l1.891-1.093l-3.505-0.94c-0.288-0.076-0.459-0.373-0.381-0.659
			c0.076-0.288,0.368-0.459,0.661-0.382l4.548,1.219l1.574-0.91L7.24,11.668c-0.147-0.144-0.201-0.358-0.137-0.553
			c0.062-0.196,0.231-0.338,0.436-0.368l0.771-0.112l-0.716-0.413L3.043,11.44c-0.047,0.012-0.094,0.018-0.14,0.018
			c-0.24,0-0.457-0.158-0.521-0.399c-0.078-0.288,0.093-0.584,0.381-0.662l3.508-0.939L4.377,8.364
			c-0.26-0.149-0.349-0.479-0.198-0.737C4.327,7.369,4.658,7.28,4.916,7.429l1.892,1.093L5.87,5.016
			C5.792,4.727,5.965,4.432,6.251,4.354c0.295-0.077,0.586,0.095,0.663,0.382l1.217,4.549l1.903,1.099l0.486-0.071l1.279-2.591V7.17
			l-3.33-3.331c-0.21-0.21-0.21-0.553,0-0.763c0.212-0.21,0.553-0.21,0.764,0L11.8,5.644V3.457c0-0.299,0.241-0.54,0.539-0.54
			c0.299,0,0.541,0.241,0.541,0.54v2.185l2.565-2.566c0.211-0.21,0.553-0.21,0.765,0c0.21,0.21,0.21,0.553,0,0.764l-3.33,3.329
			v0.558l1.276,2.588l0.488,0.072l1.903-1.099l1.217-4.549c0.078-0.287,0.369-0.458,0.663-0.382
			c0.286,0.078,0.459,0.373,0.381,0.662l-0.939,3.506l1.892-1.092c0.261-0.15,0.591-0.061,0.738,0.197s0.06,0.588-0.197,0.737
			L18.408,9.46l3.508,0.939c0.287,0.077,0.458,0.374,0.381,0.662c-0.064,0.241-0.281,0.399-0.521,0.399
			c-0.047,0-0.093-0.006-0.14-0.018l-4.551-1.218l-0.716,0.414l0.77,0.111c0.202,0.029,0.371,0.171,0.436,0.368
			c0.063,0.195,0.011,0.409-0.137,0.553l-1.927,1.879l1.575,0.91l4.55-1.219c0.294-0.077,0.585,0.095,0.661,0.382
			C22.375,13.908,22.203,14.203,21.916,14.279z"/>
	</g>
</g>
<g>
</g>
<g>
</g>
<g>
</g>
<g>
</g>
<g>
</g>
<g>
</g>
<g>
</g>
<g>
</g>
<g>
</g>
<g>
</g>
<g>
</g>
<g>
</g>
<g>
</g>
<g>
</g>
<g>
</g>
</svg>
