<?xml version="1.0" encoding="iso-8859-1"?>
<!-- Generator: Adobe Illustrator 16.0.0, SVG Export Plug-In . SVG Version: 6.00 Build 0)  -->
<!DOCTYPE svg PUBLIC "-//W3C//DTD SVG 1.1//EN" "http://www.w3.org/Graphics/SVG/1.1/DTD/svg11.dtd">
<svg version="1.1" id="Capa_1" xmlns="http://www.w3.org/2000/svg" xmlns:xlink="http://www.w3.org/1999/xlink" x="0px" y="0px"
	 width="29.599px" height="29.599px" viewBox="0 0 29.599 29.599" style="enable-background:new 0 0 29.599 29.599;"
	 xml:space="preserve">
<g>
	<g>
		<path d="M19.489,22.272c-1.878,1.161-4.373,1.161-6.251,0c-1.878,1.161-4.372,1.161-6.25,0c-0.759,0.47-1.608,0.755-2.494,0.852
			c1.855,3.829,5.767,6.476,10.306,6.476c4.806,0,8.915-2.962,10.615-7.158C23.583,23.421,21.263,23.371,19.489,22.272z"/>
		<path d="M10.113,14.011c1.878-1.162,4.372-1.162,6.251,0c1.877-1.162,4.372-1.162,6.25,0c0.76-0.471,1.608-0.756,2.497-0.852
			c-1.311-2.699-3.647-4.808-6.507-5.815v-3.54C18.604,1.703,16.902,0,14.801,0c-2.1,0-3.804,1.703-3.804,3.804v3.541
			C7.9,8.437,5.413,10.816,4.183,13.843C6.019,12.863,8.339,12.913,10.113,14.011z M12.86,3.803c0-1.07,0.871-1.94,1.94-1.94
			c1.069,0,1.94,0.871,1.94,1.94v0.822h-3.882L12.86,3.803L12.86,3.803z"/>
		<path d="M5.739,16.944l0.625-0.833c0.363-0.484,0.889-0.483,1.25,0l0.625,0.833c0.955,1.271,2.797,1.271,3.751,0l0.625-0.832
			c0.363-0.484,0.889-0.483,1.25,0l0.625,0.834c0.954,1.271,2.796,1.271,3.75,0l0.625-0.833c0.362-0.484,0.889-0.483,1.25,0
			l0.626,0.833c0.954,1.271,2.796,1.271,3.75,0l0.625-0.832c0.258-0.344,0.597-0.432,0.902-0.287
			c-0.112-0.543-0.262-1.072-0.447-1.584c-0.642,0.048-1.266,0.35-1.705,0.934l-0.625,0.832c-0.362,0.484-0.889,0.483-1.25,0
			l-0.625-0.833c-0.954-1.271-2.796-1.271-3.75,0l-0.626,0.832c-0.363,0.484-0.888,0.483-1.25,0l-0.625-0.833
			c-0.954-1.271-2.796-1.271-3.75,0l-0.625,0.833c-0.362,0.484-0.888,0.483-1.25,0l-0.625-0.833c-0.954-1.271-2.797-1.271-3.751,0
			l-0.625,0.833c-0.282,0.377-0.662,0.451-0.988,0.24c-0.086,0.519-0.132,1.052-0.146,1.592C4.209,18.032,5.146,17.733,5.739,16.944
			z"/>
		<path d="M23.863,19.34l-0.625,0.832c-0.362,0.484-0.889,0.483-1.25,0l-0.626-0.834c-0.954-1.27-2.795-1.27-3.749,0l-0.626,0.833
			c-0.363,0.484-0.888,0.483-1.25,0l-0.625-0.833c-0.955-1.271-2.797-1.271-3.751,0l-0.625,0.832c-0.363,0.484-0.889,0.483-1.25,0
			l-0.625-0.834c-0.954-1.271-2.797-1.271-3.75,0l-0.625,0.833c-0.26,0.348-0.604,0.436-0.912,0.282
			c0.112,0.547,0.276,1.072,0.462,1.587c0.638-0.05,1.263-0.351,1.7-0.933l0.625-0.833c0.362-0.484,0.888-0.483,1.25,0l0.625,0.833
			c0.954,1.271,2.796,1.271,3.75,0l0.625-0.832c0.362-0.484,0.888-0.483,1.25,0l0.625,0.834c0.955,1.27,2.796,1.27,3.75,0
			l0.626-0.833c0.363-0.484,0.888-0.483,1.25,0l0.625,0.833c0.954,1.271,2.797,1.271,3.751,0l0.625-0.832
			c0.278-0.372,0.654-0.451,0.977-0.25c0.088-0.517,0.14-1.044,0.153-1.583C25.391,18.251,24.457,18.55,23.863,19.34z"/>
	</g>
</g>
<g>
</g>
<g>
</g>
<g>
</g>
<g>
</g>
<g>
</g>
<g>
</g>
<g>
</g>
<g>
</g>
<g>
</g>
<g>
</g>
<g>
</g>
<g>
</g>
<g>
</g>
<g>
</g>
<g>
</g>
</svg>
