<?xml version="1.0" encoding="iso-8859-1"?>
<!-- Generator: Adobe Illustrator 16.0.0, SVG Export Plug-In . SVG Version: 6.00 Build 0)  -->
<!DOCTYPE svg PUBLIC "-//W3C//DTD SVG 1.1//EN" "http://www.w3.org/Graphics/SVG/1.1/DTD/svg11.dtd">
<svg version="1.1" id="Capa_1" xmlns="http://www.w3.org/2000/svg" xmlns:xlink="http://www.w3.org/1999/xlink" x="0px" y="0px"
	 width="24.679px" height="24.679px" viewBox="0 0 24.679 24.679" style="enable-background:new 0 0 24.679 24.679;"
	 xml:space="preserve">
<g>
	<path d="M12.34,1c6.252,0,11.339,5.087,11.339,11.339c0,6.253-5.086,11.34-11.339,11.34S1,18.592,1,12.339C1,6.087,6.087,1,12.34,1
		 M12.34,0C5.525,0,0,5.524,0,12.339c0,6.815,5.524,12.34,12.34,12.34c6.814,0,12.339-5.524,12.339-12.34
		C24.679,5.524,19.154,0,12.34,0L12.34,0z"/>
	<path d="M22.061,13.59c-0.074-0.281-0.363-0.445-0.646-0.373l-4.44,1.189l-0.886-0.51c0.2-0.48,0.312-1.006,0.312-1.557
		s-0.111-1.076-0.312-1.556l0.884-0.51l4.442,1.189c0.046,0.012,0.091,0.018,0.136,0.018c0.232,0,0.446-0.155,0.51-0.391
		c0.075-0.281-0.092-0.57-0.373-0.645l-3.425-0.917l1.849-1.067c0.252-0.146,0.338-0.468,0.193-0.72s-0.469-0.337-0.72-0.192
		l-1.847,1.066l0.918-3.423c0.074-0.281-0.092-0.57-0.373-0.645c-0.28-0.072-0.569,0.091-0.646,0.373l-1.189,4.441l-0.89,0.514
		c-0.642-0.835-1.598-1.414-2.691-1.557V7.293l3.25-3.25c0.205-0.206,0.205-0.539,0-0.745c-0.207-0.206-0.541-0.206-0.745,0
		l-2.505,2.505V3.669c0-0.291-0.236-0.527-0.527-0.527s-0.527,0.236-0.527,0.527v2.136L9.307,3.298c-0.206-0.206-0.54-0.206-0.745,0
		c-0.206,0.206-0.206,0.54,0,0.745l3.251,3.252v1.022C10.72,8.46,9.763,9.039,9.122,9.873L8.233,9.359l-1.189-4.44
		C6.969,4.637,6.678,4.473,6.398,4.546C6.117,4.621,5.95,4.91,6.025,5.191l0.917,3.422L5.094,7.547
		C4.843,7.401,4.52,7.488,4.375,7.74c-0.146,0.252-0.06,0.574,0.192,0.72l1.85,1.068l-3.424,0.917
		C2.711,10.52,2.545,10.809,2.62,11.09c0.063,0.236,0.276,0.391,0.509,0.391c0.045,0,0.091-0.006,0.137-0.018l4.442-1.189
		l0.882,0.509c-0.2,0.48-0.312,1.005-0.312,1.557c0,0.551,0.112,1.078,0.312,1.557l-0.885,0.512l-4.439-1.19
		c-0.278-0.073-0.57,0.093-0.646,0.373c-0.075,0.281,0.091,0.57,0.373,0.646l3.422,0.916L4.568,16.22
		c-0.252,0.146-0.338,0.468-0.192,0.72c0.097,0.17,0.274,0.265,0.457,0.265c0.09,0,0.18-0.023,0.263-0.071l1.85-1.068l-0.918,3.424
		c-0.075,0.281,0.092,0.569,0.373,0.646c0.046,0.013,0.092,0.019,0.137,0.019c0.232,0,0.446-0.155,0.509-0.391l1.191-4.441
		l0.887-0.513c0.641,0.834,1.598,1.413,2.691,1.556v1.023l-3.251,3.252c-0.206,0.205-0.206,0.539,0,0.745s0.54,0.206,0.745,0
		l2.506-2.506v2.135c0,0.291,0.236,0.527,0.527,0.527s0.527-0.236,0.527-0.527v-2.132l2.505,2.505
		c0.104,0.103,0.236,0.154,0.373,0.154c0.135,0,0.27-0.052,0.373-0.154c0.205-0.206,0.205-0.54,0-0.746l-3.25-3.25v-1.026
		c1.093-0.143,2.049-0.721,2.692-1.556l0.887,0.513l1.19,4.441c0.063,0.235,0.276,0.391,0.509,0.391
		c0.047,0,0.092-0.006,0.137-0.018c0.281-0.076,0.449-0.363,0.373-0.646l-0.918-3.424l1.849,1.067
		c0.083,0.048,0.174,0.071,0.263,0.071c0.182,0,0.359-0.094,0.457-0.264c0.146-0.252,0.059-0.574-0.193-0.72l-1.846-1.065
		l3.422-0.918C21.969,14.16,22.136,13.871,22.061,13.59z M12.339,15.346c-1.657,0-3.007-1.349-3.007-3.006
		c0-1.658,1.35-3.006,3.007-3.006c1.658,0,3.007,1.348,3.007,3.006C15.346,13.997,13.997,15.346,12.339,15.346z"/>
</g>
<g>
</g>
<g>
</g>
<g>
</g>
<g>
</g>
<g>
</g>
<g>
</g>
<g>
</g>
<g>
</g>
<g>
</g>
<g>
</g>
<g>
</g>
<g>
</g>
<g>
</g>
<g>
</g>
<g>
</g>
</svg>
